<mxfile host="app.diagrams.net" modified="2023-03-17T08:02:42.824Z" agent="5.0 (Macintosh; Intel Mac OS X 10_15_7) AppleWebKit/537.36 (KHTML, like Gecko) Chrome/110.0.0.0 Safari/537.36" etag="yF3I8CfpSl4uDGVCbzpW" version="17.2.2" type="github">
  <diagram id="prtHgNgQTEPvFCAcTncT" name="Page-1">
    <mxGraphModel dx="1186" dy="613" grid="1" gridSize="10" guides="1" tooltips="1" connect="1" arrows="1" fold="1" page="1" pageScale="1" pageWidth="827" pageHeight="1169" math="0" shadow="0">
      <root>
        <mxCell id="0" />
        <mxCell id="1" parent="0" />
        <mxCell id="dNxyNK7c78bLwvsdeMH5-19" value="Pool" style="swimlane;html=1;childLayout=stackLayout;resizeParent=1;resizeParentMax=0;horizontal=0;startSize=20;horizontalStack=0;" parent="1" vertex="1">
          <mxGeometry x="20" y="30" width="610" height="430" as="geometry" />
        </mxCell>
        <mxCell id="CR6LkncwCoMP8c3s7geg-6" value="" style="edgeStyle=orthogonalEdgeStyle;rounded=0;orthogonalLoop=1;jettySize=auto;html=1;fillColor=#dae8fc;strokeColor=#6c8ebf;" edge="1" parent="dNxyNK7c78bLwvsdeMH5-19" source="dNxyNK7c78bLwvsdeMH5-24" target="dNxyNK7c78bLwvsdeMH5-26">
          <mxGeometry relative="1" as="geometry" />
        </mxCell>
        <mxCell id="CR6LkncwCoMP8c3s7geg-7" value="1.写" style="edgeLabel;html=1;align=center;verticalAlign=middle;resizable=0;points=[];" vertex="1" connectable="0" parent="CR6LkncwCoMP8c3s7geg-6">
          <mxGeometry x="-0.5167" relative="1" as="geometry">
            <mxPoint y="1" as="offset" />
          </mxGeometry>
        </mxCell>
        <mxCell id="dNxyNK7c78bLwvsdeMH5-20" value="Service" style="swimlane;html=1;startSize=20;horizontal=0;" parent="dNxyNK7c78bLwvsdeMH5-19" vertex="1">
          <mxGeometry x="20" width="590" height="120" as="geometry" />
        </mxCell>
        <mxCell id="dNxyNK7c78bLwvsdeMH5-24" value="旧service" style="rounded=0;whiteSpace=wrap;html=1;fontFamily=Helvetica;fontSize=12;fontColor=#000000;align=center;" parent="dNxyNK7c78bLwvsdeMH5-20" vertex="1">
          <mxGeometry x="50" y="30" width="80" height="60" as="geometry" />
        </mxCell>
        <mxCell id="dNxyNK7c78bLwvsdeMH5-30" value="shardingJdbc&lt;br&gt;新服务" style="rounded=0;whiteSpace=wrap;html=1;fontFamily=Helvetica;fontSize=12;fontColor=#000000;align=center;" parent="dNxyNK7c78bLwvsdeMH5-20" vertex="1">
          <mxGeometry x="380" y="30" width="80" height="60" as="geometry" />
        </mxCell>
        <mxCell id="dNxyNK7c78bLwvsdeMH5-21" value="旧DB" style="swimlane;html=1;startSize=20;horizontal=0;" parent="dNxyNK7c78bLwvsdeMH5-19" vertex="1">
          <mxGeometry x="20" y="120" width="590" height="120" as="geometry" />
        </mxCell>
        <mxCell id="dNxyNK7c78bLwvsdeMH5-26" value="旧表&lt;br&gt;tableA" style="rounded=0;whiteSpace=wrap;html=1;fontFamily=Helvetica;fontSize=12;fontColor=#000000;align=center;" parent="dNxyNK7c78bLwvsdeMH5-21" vertex="1">
          <mxGeometry x="50" y="30" width="80" height="60" as="geometry" />
        </mxCell>
        <mxCell id="dNxyNK7c78bLwvsdeMH5-22" value="新DB" style="swimlane;html=1;startSize=20;horizontal=0;" parent="dNxyNK7c78bLwvsdeMH5-19" vertex="1">
          <mxGeometry x="20" y="240" width="590" height="190" as="geometry" />
        </mxCell>
        <mxCell id="dNxyNK7c78bLwvsdeMH5-34" value="分表&lt;br&gt;tableA-1" style="rounded=0;whiteSpace=wrap;html=1;fontFamily=Helvetica;fontSize=12;fontColor=#000000;align=center;" parent="dNxyNK7c78bLwvsdeMH5-22" vertex="1">
          <mxGeometry x="200" y="25" width="80" height="60" as="geometry" />
        </mxCell>
        <mxCell id="CR6LkncwCoMP8c3s7geg-8" style="edgeStyle=orthogonalEdgeStyle;rounded=0;orthogonalLoop=1;jettySize=auto;html=1;entryX=0;entryY=0.5;entryDx=0;entryDy=0;fillColor=#dae8fc;strokeColor=#6c8ebf;" edge="1" parent="dNxyNK7c78bLwvsdeMH5-19" source="dNxyNK7c78bLwvsdeMH5-26" target="dNxyNK7c78bLwvsdeMH5-34">
          <mxGeometry relative="1" as="geometry" />
        </mxCell>
        <mxCell id="CR6LkncwCoMP8c3s7geg-12" style="edgeStyle=orthogonalEdgeStyle;rounded=0;orthogonalLoop=1;jettySize=auto;html=1;entryX=1;entryY=0.5;entryDx=0;entryDy=0;fillColor=#dae8fc;strokeColor=#6c8ebf;" edge="1" parent="dNxyNK7c78bLwvsdeMH5-19" source="dNxyNK7c78bLwvsdeMH5-30" target="dNxyNK7c78bLwvsdeMH5-34">
          <mxGeometry relative="1" as="geometry">
            <Array as="points">
              <mxPoint x="440" y="290" />
              <mxPoint x="300" y="290" />
            </Array>
          </mxGeometry>
        </mxCell>
        <mxCell id="CR6LkncwCoMP8c3s7geg-24" value="" style="edgeStyle=orthogonalEdgeStyle;rounded=0;orthogonalLoop=1;jettySize=auto;html=1;fontSize=14;fillColor=#f8cecc;strokeColor=#b85450;" edge="1" parent="1" source="CR6LkncwCoMP8c3s7geg-1" target="CR6LkncwCoMP8c3s7geg-23">
          <mxGeometry relative="1" as="geometry" />
        </mxCell>
        <mxCell id="CR6LkncwCoMP8c3s7geg-25" value="&lt;font style=&quot;font-size: 12px&quot;&gt;后续扩容扩展分表&lt;/font&gt;" style="edgeLabel;html=1;align=center;verticalAlign=middle;resizable=0;points=[];fontSize=14;" vertex="1" connectable="0" parent="CR6LkncwCoMP8c3s7geg-24">
          <mxGeometry x="-0.8" y="-1" relative="1" as="geometry">
            <mxPoint x="75" y="29" as="offset" />
          </mxGeometry>
        </mxCell>
        <mxCell id="CR6LkncwCoMP8c3s7geg-1" value="分表&lt;br&gt;tableA-2" style="rounded=0;whiteSpace=wrap;html=1;fontFamily=Helvetica;fontSize=12;fontColor=#000000;align=center;" vertex="1" parent="1">
          <mxGeometry x="240" y="375" width="80" height="60" as="geometry" />
        </mxCell>
        <mxCell id="CR6LkncwCoMP8c3s7geg-9" style="edgeStyle=orthogonalEdgeStyle;rounded=0;orthogonalLoop=1;jettySize=auto;html=1;entryX=0;entryY=0.5;entryDx=0;entryDy=0;fillColor=#dae8fc;strokeColor=#6c8ebf;" edge="1" parent="1" source="dNxyNK7c78bLwvsdeMH5-26" target="CR6LkncwCoMP8c3s7geg-1">
          <mxGeometry relative="1" as="geometry" />
        </mxCell>
        <mxCell id="CR6LkncwCoMP8c3s7geg-10" value="2.DTS实时同步任务&lt;br&gt;同步策略与&lt;span style=&quot;font-size: 12px ; background-color: rgb(248 , 249 , 250)&quot;&gt;shardingJdbc分表策略同&lt;br&gt;(也可以采用，canal订阅binlog完成同步任务)&lt;br&gt;&lt;/span&gt;" style="edgeLabel;html=1;align=center;verticalAlign=middle;resizable=0;points=[];" vertex="1" connectable="0" parent="CR6LkncwCoMP8c3s7geg-9">
          <mxGeometry x="-0.4354" y="1" relative="1" as="geometry">
            <mxPoint x="47" y="15" as="offset" />
          </mxGeometry>
        </mxCell>
        <mxCell id="CR6LkncwCoMP8c3s7geg-13" style="edgeStyle=orthogonalEdgeStyle;rounded=0;orthogonalLoop=1;jettySize=auto;html=1;entryX=1;entryY=0.5;entryDx=0;entryDy=0;fillColor=#dae8fc;strokeColor=#6c8ebf;" edge="1" parent="1" source="dNxyNK7c78bLwvsdeMH5-30" target="CR6LkncwCoMP8c3s7geg-1">
          <mxGeometry relative="1" as="geometry">
            <Array as="points">
              <mxPoint x="460" y="400" />
              <mxPoint x="320" y="400" />
            </Array>
          </mxGeometry>
        </mxCell>
        <mxCell id="CR6LkncwCoMP8c3s7geg-14" value="3.待DTS达到近实时新老数据同步速率时&lt;br&gt;选择流量低（凌晨）时间段，全量发布新服务&lt;br&gt;4.观察服务请求，废弃旧DB旧表数据tableA" style="edgeLabel;html=1;align=center;verticalAlign=middle;resizable=0;points=[];" vertex="1" connectable="0" parent="CR6LkncwCoMP8c3s7geg-13">
          <mxGeometry x="-0.4537" y="-2" relative="1" as="geometry">
            <mxPoint x="2" y="-32" as="offset" />
          </mxGeometry>
        </mxCell>
        <mxCell id="CR6LkncwCoMP8c3s7geg-15" value="&lt;h1&gt;旧(库)表迁移（不停机）&lt;/h1&gt;&lt;span style=&quot;font-size: 14px&quot;&gt;1.【两个方案】&lt;/span&gt;&lt;p style=&quot;font-size: 14px&quot;&gt;&lt;font style=&quot;font-size: 14px&quot;&gt;旧表数据同步到新分表&lt;/font&gt;&lt;/p&gt;&lt;font style=&quot;font-size: 14px&quot;&gt;&lt;span style=&quot;text-align: center&quot;&gt;&lt;div style=&quot;text-align: left&quot;&gt;&lt;span style=&quot;background-color: rgb(248 , 249 , 250)&quot;&gt;1.1&amp;nbsp;&lt;/span&gt;&lt;span style=&quot;background-color: rgb(255 , 255 , 255)&quot;&gt;DTS实时同步任务：同步策略与sharding分表策略相同&lt;/span&gt;&lt;/div&gt;&lt;/span&gt;&lt;span style=&quot;text-align: center&quot;&gt;&lt;br&gt;&lt;br&gt;&lt;/span&gt;&lt;span style=&quot;text-align: center&quot;&gt;&lt;div style=&quot;text-align: left&quot;&gt;&lt;span&gt;1.2 canal订阅binlog监听，完成分表存量数据同步任务&lt;/span&gt;&lt;/div&gt;&lt;div style=&quot;text-align: left&quot;&gt;&lt;span&gt;&lt;br&gt;&lt;/span&gt;&lt;/div&gt;&lt;/span&gt;&lt;/font&gt;&lt;p style=&quot;font-size: 14px&quot;&gt;&lt;font style=&quot;font-size: 14px&quot;&gt;2.选择低流量时间灰度发布shardingJdbc新服务实行新分表读写，自行灰度账号验证数据读写是否正确。&lt;/font&gt;&lt;/p&gt;&lt;p style=&quot;font-size: 14px&quot;&gt;&lt;font style=&quot;font-size: 14px&quot;&gt;&lt;br&gt;&lt;/font&gt;&lt;/p&gt;&lt;p style=&quot;font-size: 14px&quot;&gt;3.验证没问题，全量发布新服务，实行新分表读写&lt;/p&gt;&lt;p style=&quot;font-size: 14px&quot;&gt;&lt;br&gt;&lt;/p&gt;&lt;p style=&quot;font-size: 14px&quot;&gt;&lt;span&gt;4.观察线上流量，没问题则可回收/truncate掉旧表数据，释放存储空间&lt;/span&gt;&lt;/p&gt;&lt;p style=&quot;font-size: 14px&quot;&gt;&lt;span&gt;&lt;br&gt;&lt;/span&gt;&lt;/p&gt;&lt;p style=&quot;font-size: 14px&quot;&gt;&lt;span&gt;5.验证有问题【回滚方案】：灰度服务不发布，切换会旧服务旧表运行，迁移升级失败。&lt;/span&gt;&lt;/p&gt;" style="text;html=1;strokeColor=none;fillColor=none;spacing=5;spacingTop=-20;whiteSpace=wrap;overflow=hidden;rounded=0;" vertex="1" parent="1">
          <mxGeometry x="650" y="30" width="370" height="470" as="geometry" />
        </mxCell>
        <mxCell id="CR6LkncwCoMP8c3s7geg-21" value="分表&lt;br&gt;tableA-3" style="rounded=0;whiteSpace=wrap;html=1;fontFamily=Helvetica;fontSize=12;align=center;fillColor=#f8cecc;strokeColor=#b85450;" vertex="1" parent="1">
          <mxGeometry x="90" y="500" width="80" height="60" as="geometry" />
        </mxCell>
        <mxCell id="CR6LkncwCoMP8c3s7geg-23" value="分表&lt;br&gt;tableA-4" style="rounded=0;whiteSpace=wrap;html=1;fontFamily=Helvetica;fontSize=12;align=center;fillColor=#f8cecc;strokeColor=#b85450;" vertex="1" parent="1">
          <mxGeometry x="390" y="500" width="80" height="60" as="geometry" />
        </mxCell>
        <mxCell id="CR6LkncwCoMP8c3s7geg-26" style="edgeStyle=orthogonalEdgeStyle;rounded=0;orthogonalLoop=1;jettySize=auto;html=1;fontSize=12;fillColor=#f8cecc;strokeColor=#b85450;" edge="1" parent="1" source="dNxyNK7c78bLwvsdeMH5-34" target="CR6LkncwCoMP8c3s7geg-21">
          <mxGeometry relative="1" as="geometry" />
        </mxCell>
        <mxCell id="CR6LkncwCoMP8c3s7geg-27" value="后续修改sharding分表策略&lt;br&gt;扩容扩展分表" style="edgeLabel;html=1;align=center;verticalAlign=middle;resizable=0;points=[];fontSize=12;" vertex="1" connectable="0" parent="CR6LkncwCoMP8c3s7geg-26">
          <mxGeometry x="0.1255" relative="1" as="geometry">
            <mxPoint y="51" as="offset" />
          </mxGeometry>
        </mxCell>
        <mxCell id="CR6LkncwCoMP8c3s7geg-28" value="&lt;h1&gt;扩容扩展分表&lt;/h1&gt;&lt;p&gt;注意点：&lt;span&gt;分表策略，一定要用加上“时间戳+业务键”策略，这样以后扩展分表，才能新产生的数据读写扩展新表，旧的读写“旧表”&lt;/span&gt;&lt;/p&gt;" style="text;html=1;strokeColor=none;fillColor=none;spacing=5;spacingTop=-20;whiteSpace=wrap;overflow=hidden;rounded=0;fontSize=12;" vertex="1" parent="1">
          <mxGeometry x="90" y="570" width="320" height="110" as="geometry" />
        </mxCell>
      </root>
    </mxGraphModel>
  </diagram>
</mxfile>
